<?xml version="1.0" encoding="UTF-8"?>
<!-- Generated by Pixelmator Pro 2.3.8 -->
<svg width="890" height="987" viewBox="0 0 890 987" xmlns="http://www.w3.org/2000/svg" xmlns:xlink="http://www.w3.org/1999/xlink">
    <path id="Path-copy" fill="#ffffff" stroke="none" d="M 0.110779 981.461243 C 149.836227 655.746826 299.26947 331.635132 451.567902 1.309326 C 597.850952 332.153381 741.729126 657.558411 887.361511 986.931091 C 875.613708 986.931091 867.421753 986.945129 859.229797 986.928894 C 805.035645 986.822144 750.835938 986.253296 696.651306 986.922119 C 683.306274 987.086487 677.372986 982.760132 672.270142 970.369507 C 599.134583 792.787415 525.372375 615.463318 451.686096 438.108276 C 450.726929 435.7995 448.795746 433.89447 445.599579 429.366028 C 363.38797 616.387512 282.028381 801.470825 200.561356 986.798462 C 135.186279 986.798462 70.429749 986.830872 5.674002 986.641357 C 3.718756 986.635742 1.770227 984.308594 0.110779 981.461243 Z"/>
</svg>
