<?xml version="1.0" encoding="UTF-8"?>
<!-- Generated by Pixelmator Pro 2.3.8 -->
<svg width="301" height="122" viewBox="0 0 301 122" xmlns="http://www.w3.org/2000/svg" xmlns:xlink="http://www.w3.org/1999/xlink">
    <g id="Group-copy">
        <path id="Path" fill="#ffffff" stroke="none" d="M 0.110779 98.324463 C 15.083324 65.753021 30.026646 33.34185 45.256489 0.309265 C 59.884796 33.393677 74.272614 65.934181 88.835854 98.871445 C 87.661072 98.871445 86.841873 98.872849 86.022682 98.871231 C 80.603264 98.86055 75.183296 98.803665 69.764832 98.870552 C 68.430328 98.886986 67.836998 98.454353 67.326714 97.215286 C 60.013161 79.457077 52.636936 61.72467 45.268311 43.989166 C 45.172394 43.758286 44.979275 43.567787 44.65966 43.114937 C 36.438499 61.817089 28.302538 80.325424 20.155836 98.858185 C 13.61833 98.858185 7.142676 98.861427 0.667101 98.842468 C 0.471577 98.841919 0.276724 98.6092 0.110779 98.324463 Z"/>
        <path id="path1" fill="#ffffff" stroke="none" d="M 233.704056 31.903961 C 233.974945 31.063164 234.200836 30.376244 234.457169 29.596687 C 239.986771 29.596687 245.490723 29.596687 251.166901 29.596687 C 249.001831 35.623398 246.829391 41.490517 244.782349 47.401085 C 237.136398 69.477585 229.519974 91.564331 221.941681 113.664124 C 221.512192 114.916618 220.909607 115.621475 219.633514 116.01088 C 214.355209 117.621651 209.105148 119.324936 203.533829 121.092873 C 205.203415 115.877426 206.764374 111.003365 208.323898 106.128815 C 208.987701 104.054039 209.526215 101.92865 210.343292 99.916206 C 211.264191 97.648026 211.131134 95.56514 210.376114 93.245567 C 203.71727 72.78746 197.161362 52.295845 190.575836 31.813896 C 190.356689 31.132301 190.145905 30.448044 189.83075 29.445282 C 191.847015 29.445282 193.65686 29.445618 195.466675 29.445206 C 198.83696 29.444458 202.208252 29.490303 205.576965 29.417152 C 206.77684 29.391106 207.254715 29.771507 207.58252 30.965324 C 211.479156 45.156845 215.446823 59.328899 219.398499 73.50531 C 219.503433 73.881744 219.637939 74.249916 219.906311 75.077042 C 220.404861 74.392807 220.862244 74.007805 221.009415 73.527725 C 225.244995 59.710289 229.449524 45.883293 233.704056 31.903961 Z"/>
        <path id="path2" fill="#ffffff" stroke="none" d="M 186.405853 33.601173 C 186.522034 34.188683 186.705429 34.759361 186.517563 35.152733 C 184.899643 38.540955 183.214767 41.897179 181.454926 45.454842 C 180.704636 45.087128 180.070007 44.792496 179.450089 44.469658 C 175.074127 42.190971 170.400864 41.193657 165.493118 41.339035 C 164.186935 41.377716 162.84697 41.5672 161.596497 41.937454 C 158.705643 42.793388 157.091492 44.684464 156.943832 47.213127 C 156.781677 49.989807 158.360107 51.756798 160.697296 52.714874 C 164.904648 54.439514 169.211609 55.920105 173.465759 57.532181 C 174.883636 58.069504 176.277634 58.673687 177.664764 59.287579 C 184.992111 62.530323 189.031433 68.118927 189.460632 76.152145 C 190.000259 86.251411 186.408966 94.291557 176.861923 97.604042 C 172.948578 98.96183 168.61055 99.499184 164.441391 99.62912 C 156.636215 99.872368 149.050995 98.37999 141.949371 94.96386 C 138.042343 93.08445 138.062363 93.023521 140.06218 89.260223 C 141.572342 86.418365 143.104477 83.588181 144.440338 81.100143 C 148.958801 82.687668 153.141434 84.571289 157.525909 85.55941 C 160.718033 86.278763 164.223328 86.188309 167.503265 85.776344 C 170.840347 85.357216 172.635498 83.091331 172.919159 80.304749 C 173.207535 77.472397 171.905396 75.006889 168.864059 73.697464 C 165.297668 72.161942 161.571106 70.999573 157.920273 69.65834 C 156.310989 69.067154 154.679123 68.517189 153.122467 67.806305 C 143.833542 63.56419 140.223663 57.575455 140.757126 47.400406 C 141.209503 38.772316 146.159561 32.198021 154.404556 29.631134 C 156.902771 28.85334 159.551361 28.400597 162.163406 28.177315 C 168.909042 27.600731 175.483948 28.572937 181.783691 31.081413 C 183.360703 31.709373 184.798935 32.685822 186.405853 33.601173 Z"/>
        <path id="path3" fill="#ffffff" stroke="none" d="M 267.825378 28.79953 C 277.569946 27.092354 286.805359 28.222992 295.658142 32.251343 C 298.214417 33.414543 298.220856 33.580498 296.990112 36.039864 C 295.431976 39.153343 293.848267 42.253975 292.22226 45.465492 C 287.441345 42.920204 282.565674 41.325386 277.310059 41.372345 C 275.360962 41.389771 273.35553 41.685326 271.485016 42.22953 C 269.208649 42.891853 267.913818 44.63295 267.689392 47.050003 C 267.467102 49.444008 268.537781 51.241432 270.639557 52.18409 C 273.822357 53.611565 277.115814 54.791855 280.35849 56.086662 C 283.174927 57.211304 286.044495 58.22401 288.788361 59.505096 C 296.225891 62.977577 299.963287 68.939995 300.104675 77.106377 C 300.248932 85.438141 297.864166 92.668854 289.908386 96.616165 C 286.795746 98.160538 283.176453 99.106415 279.705322 99.425163 C 269.933594 100.322456 260.472626 98.826881 251.656281 94.257576 C 249.088104 92.926605 249.125092 92.856186 250.42334 90.279762 C 252.022324 87.106522 253.620544 83.932877 255.329544 80.540161 C 256.147125 80.975357 256.826019 81.326874 257.49588 81.694786 C 263.592102 85.042999 270.036133 86.918121 277.05896 86.207352 C 282.095093 85.697693 284.959351 81.952339 283.645874 77.706467 C 283.008209 75.645203 281.519958 74.33091 279.631683 73.592072 C 275.764648 72.079018 271.833466 70.729477 267.924957 69.323059 C 263.98996 67.90712 260.273987 66.133377 257.022552 63.41423 C 247.797638 55.699486 249.008682 35.21209 264.059357 29.909889 C 265.240204 29.493889 266.45929 29.186394 267.825378 28.79953 Z"/>
        <path id="path4" fill="#ffffff" stroke="none" d="M 115.044838 78.164978 C 115.162086 79.131386 115.244881 79.920845 115.394363 80.697418 C 115.991783 83.801079 117.586937 85.393311 120.77932 85.468346 C 123.335388 85.528381 125.903862 85.125977 128.464279 84.899963 C 129.438644 84.81398 130.405899 84.647522 131.434052 84.510025 C 132.477524 88.254639 133.511963 91.852943 134.442535 95.477898 C 134.538483 95.851669 134.116653 96.678253 133.76384 96.800446 C 125.50724 99.660492 117.154053 101.296143 108.594719 98.105103 C 103.214836 96.099388 100.189461 92.022362 99.258049 86.493423 C 98.734154 83.383575 98.548721 80.187332 98.526054 77.027733 C 98.448822 66.255035 98.511543 55.481293 98.520714 44.707962 C 98.521324 43.987862 98.52079 43.267731 98.52079 42.32151 C 94.073723 42.32151 89.747841 42.32151 85.342285 42.32151 C 85.342285 37.891579 85.342285 33.690376 85.342285 29.389366 C 89.706909 29.389366 93.983955 29.389366 98.51255 29.389366 C 98.51255 27.470596 98.513924 25.641678 98.512245 23.812767 C 98.509026 20.309853 98.46151 16.805901 98.543579 13.305 C 98.556587 12.750175 99.025101 11.899208 99.495003 11.709099 C 104.499329 9.684326 109.546494 7.765388 114.841148 5.717026 C 114.841148 13.63517 114.841148 21.378143 114.841148 29.328506 C 121.042007 29.328506 127.018791 29.328506 133.16832 29.328506 C 133.16832 33.731812 133.16832 37.928787 133.16832 42.263832 C 127.232735 42.263832 121.23555 42.263832 115.041054 42.263832 C 115.041054 54.259224 115.041054 66.120667 115.044838 78.164978 Z"/>
    </g>
</svg>
